<?xml version="1.0" standalone="no"?>
<!DOCTYPE svg PUBLIC "-//W3C//DTD SVG 20010904//EN"
 "http://www.w3.org/TR/2001/REC-SVG-20010904/DTD/svg10.dtd">
<svg version="1.0" xmlns="http://www.w3.org/2000/svg"
 width="3000.000000pt" height="2095.000000pt" viewBox="0 0 3000.000000 2095.000000"
 preserveAspectRatio="xMidYMid meet">

<g transform="translate(0.000000,2095.000000) scale(0.100000,-0.100000)"
fill="#000000" stroke="none">
<path d="M12686 16572 c-1275 -1010 -2318 -1841 -2317 -1847 1 -5 489 -406
1084 -891 l1082 -881 67 129 c75 144 183 311 284 438 82 103 301 324 404 407
586 472 1322 682 2059 587 496 -64 980 -270 1369 -583 306 -247 546 -550 746
-943 18 -36 19 -37 40 -20 405 323 2154 1757 2151 1762 -6 10 -4633 3674
-4643 3677 -4 1 -1050 -825 -2326 -1835z"/>
<path d="M3705 8024 c-607 -107 -1099 -554 -1245 -1129 -160 -631 91 -1274
640 -1641 291 -194 630 -281 987 -254 368 28 642 145 885 378 129 124 186 201
258 347 105 212 143 388 144 660 1 99 -3 197 -7 218 l-8 37 -699 0 -700 0 0
-207 0 -206 495 7 495 7 0 -28 c0 -42 -36 -184 -64 -253 -100 -245 -340 -441
-634 -516 -121 -31 -316 -42 -447 -25 -111 15 -275 69 -372 122 -270 149 -464
401 -544 704 -21 79 -24 112 -24 275 0 163 3 196 24 274 55 210 137 353 291
507 143 143 266 221 433 274 355 113 718 53 1009 -168 l91 -69 143 143 144
143 -23 24 c-26 29 -165 137 -223 174 -136 87 -366 174 -533 202 -119 20 -403
20 -516 0z"/>
<path d="M16190 7746 c-308 -66 -546 -273 -617 -537 -23 -87 -23 -262 1 -349
52 -191 192 -352 394 -454 76 -39 247 -107 402 -161 311 -108 475 -215 542
-353 31 -63 33 -73 33 -177 0 -103 -2 -114 -32 -177 -40 -85 -107 -152 -199
-200 -97 -51 -169 -68 -289 -68 -58 0 -126 6 -159 15 -192 50 -366 215 -451
426 -19 46 -38 84 -42 84 -13 0 -297 -117 -307 -126 -13 -12 8 -79 59 -184 97
-201 259 -362 459 -456 152 -71 214 -83 426 -83 157 0 197 4 261 22 327 90
553 302 614 577 26 114 17 312 -18 420 -86 261 -282 427 -682 574 -354 131
-496 197 -573 266 -140 126 -142 348 -6 481 51 49 160 108 240 129 134 35 310
12 431 -56 69 -40 163 -142 193 -212 14 -31 29 -57 33 -57 4 0 76 28 158 62
l151 62 -6 30 c-9 44 -70 148 -128 217 -93 112 -259 216 -423 265 -77 22 -113
27 -245 30 -106 2 -175 -1 -220 -10z"/>
<path d="M19640 6350 l0 -1350 169 0 170 0 3 563 c3 556 4 563 27 632 61 184
188 326 337 375 57 19 82 22 178 18 99 -4 119 -8 176 -35 112 -53 176 -134
210 -268 19 -74 20 -111 20 -682 l0 -603 175 0 175 0 0 568 c0 603 -7 753 -40
872 -61 216 -215 375 -420 434 -89 26 -237 37 -330 25 -91 -11 -198 -47 -279
-92 -63 -36 -171 -134 -202 -183 -11 -19 -24 -34 -27 -34 -4 0 -5 250 -4 555
l4 555 -171 0 -171 0 0 -1350z"/>
<path d="M23790 6350 l0 -1350 170 0 170 0 0 1350 0 1350 -170 0 -170 0 0
-1350z"/>
<path d="M6367 6945 c-377 -72 -678 -347 -777 -710 -28 -102 -38 -313 -20
-423 57 -357 326 -665 676 -775 555 -175 1140 172 1258 746 32 152 17 366 -34
517 -64 185 -210 376 -374 489 -75 52 -224 118 -316 141 -113 28 -307 35 -413
15z m314 -391 c195 -58 343 -214 396 -417 21 -80 20 -232 -1 -317 -66 -263
-281 -439 -536 -440 -388 0 -654 407 -524 800 62 185 189 311 374 371 72 23
217 25 291 3z"/>
<path d="M10625 6950 c-374 -59 -681 -347 -787 -738 -28 -102 -31 -352 -5
-454 85 -343 331 -615 647 -716 282 -91 569 -36 752 142 60 58 62 54 54 -101
-10 -204 -41 -314 -119 -412 -138 -175 -416 -228 -633 -121 -93 45 -188 137
-243 233 -18 32 -34 57 -35 57 -2 0 -79 -32 -172 -71 -93 -39 -175 -73 -181
-76 -16 -6 2 -50 53 -135 122 -201 329 -353 563 -415 81 -22 119 -26 241 -27
195 0 318 27 471 105 251 130 407 380 449 719 6 53 10 435 10 1022 l0 938
-200 0 -200 0 0 -78 c0 -43 -3 -81 -6 -85 -4 -3 -32 16 -63 43 -131 113 -268
169 -436 175 -55 2 -127 0 -160 -5z m307 -400 c133 -41 249 -142 313 -274 50
-103 68 -183 68 -306 0 -212 -77 -380 -225 -492 -90 -68 -153 -90 -274 -96
-166 -7 -291 42 -406 158 -181 184 -221 494 -96 733 66 127 211 245 345 282
75 21 200 18 275 -5z"/>
<path d="M13346 6949 c-93 -12 -235 -61 -325 -112 -87 -49 -224 -175 -287
-263 -133 -186 -199 -452 -174 -699 25 -248 120 -446 291 -611 120 -115 233
-181 395 -231 84 -26 100 -27 279 -27 178 0 195 2 278 27 196 60 361 169 482
316 30 38 55 71 55 74 0 4 -74 56 -164 116 l-163 109 -38 -50 c-46 -60 -131
-130 -197 -164 -135 -68 -335 -73 -478 -12 -81 35 -190 140 -233 224 l-16 32
182 75 c676 281 1119 466 1124 471 9 9 -65 185 -109 261 -59 101 -117 173
-200 250 -191 177 -428 249 -702 214z m310 -396 c28 -11 72 -35 98 -53 48 -33
112 -118 99 -131 -9 -8 -856 -359 -866 -359 -13 0 -7 116 9 171 41 138 146
271 264 334 126 67 281 82 396 38z"/>
<path d="M18350 6898 c-287 -41 -552 -235 -685 -503 -118 -237 -138 -561 -51
-817 102 -301 322 -514 622 -604 109 -32 310 -44 430 -24 273 44 505 205 625
433 22 43 38 81 35 85 -8 7 -299 133 -302 129 -1 -1 -13 -26 -28 -54 -37 -73
-143 -183 -213 -221 -96 -50 -165 -66 -288 -66 -93 0 -121 4 -182 26 -215 77
-367 284 -403 551 -46 330 166 681 450 746 65 15 226 13 289 -4 135 -36 255
-131 320 -255 19 -36 35 -66 36 -68 3 -3 144 54 267 107 l47 20 -15 38 c-31
74 -107 179 -183 253 -194 189 -471 271 -771 228z"/>
<path d="M22375 6900 c-295 -46 -553 -236 -689 -507 -135 -270 -137 -656 -5
-930 115 -239 316 -410 576 -490 81 -24 102 -27 268 -27 196 -1 270 12 399 69
219 97 414 306 496 532 48 133 63 243 57 418 -6 184 -28 281 -97 420 -125 256
-345 434 -620 500 -79 19 -302 27 -385 15z m308 -326 c210 -54 369 -225 434
-464 24 -90 24 -290 0 -380 -92 -337 -386 -532 -701 -465 -238 50 -415 228
-470 472 -24 106 -22 298 4 392 61 220 226 390 432 445 72 20 226 20 301 0z"/>
<path d="M25099 6900 c-219 -26 -429 -134 -549 -284 -28 -33 -50 -63 -50 -66
0 -3 65 -46 145 -97 l145 -92 73 72 c115 116 235 167 392 167 127 0 217 -31
322 -112 100 -76 163 -205 163 -334 0 -35 -3 -64 -6 -64 -4 0 -45 15 -93 34
-136 54 -223 69 -401 69 -308 0 -520 -75 -667 -237 -193 -211 -188 -568 11
-784 150 -161 349 -240 585 -230 136 6 250 40 344 102 55 36 207 188 207 207
0 5 5 9 10 9 6 0 10 -50 10 -130 l0 -130 166 0 165 0 -4 643 c-4 711 -3 704
-72 852 -138 299 -480 453 -896 405z m389 -995 c45 -9 112 -33 162 -58 78 -39
85 -45 88 -75 5 -52 -17 -136 -54 -211 -46 -92 -167 -209 -266 -256 -93 -45
-162 -58 -274 -53 -81 3 -100 8 -167 41 -134 66 -194 163 -185 296 6 80 33
137 93 195 48 47 144 98 226 120 73 20 278 20 377 1z"/>
<path d="M27224 6881 c-177 -48 -317 -154 -392 -296 l-27 -50 -3 158 -3 157
-164 0 -165 0 0 -925 0 -925 170 0 169 0 3 563 3 562 26 72 c85 233 281 366
514 349 50 -3 104 -9 121 -12 l30 -6 50 164 50 163 -55 18 c-86 28 -239 32
-327 8z"/>
</g>
</svg>
